# xmcd
#
# Track frame offsets: 
#        150
#        18860
#        42993
#        60699
#        78238
#        111211
#        134100
#        153745
#        176935
#        192831
#        212693
#        240970
#        260692
#        272884
#        303754
#        323374
#        340116
#
# Disc length: 4781 seconds
#
# Revision: 2
# Processed by: cddbd v1.5.2PL0 Copyright (c) Steve Scherf et al.
# Submitted via: ExactAudioCopy v1.3
#
DISCID=ed12ab11
DTITLE=Various Artist - Akella Presents - vol.49 - Blues-Rock  CD1
DYEAR=2015
DGENRE=Blues-Rock
TTITLE0=Leslie West - Baby Please Don't Go
TTITLE1=Ryan McGarvey - Right In All The Wrong Ways
TTITLE2=Golden Earring - Little Time Bomb
TTITLE3=Albany Down - My Lucky Streak
TTITLE4=Pebbleman - Baby Calls My Name
TTITLE5=Hardbone - Take You Down Tonight
TTITLE6=Pontus Snibb 3 - Love Letter
TTITLE7=Jimmy Barnes (feat. Neal Schon and Jonathan Cain) - Going Down
TTITLE7=Alone
TTITLE8=Nine Below Zero - Bad Town
TTITLE9=Paul Camilleri - Dance With Me
TTITLE10=The Joe Richardson Express - Kill Me Quickly
TTITLE11=Vargas Blues Band - Rolling In Trance
TTITLE12=Wille and the Bandits - Galloping Horses
TTITLE13=The Force - After The Storm
TTITLE14=Sean Chambers - Since I've Been Down
TTITLE15=Danny Johnson - Boot State
TTITLE16=Mojo Makers - Let Me Take You There
EXTD=
EXTT0=
EXTT1=
EXTT2=
EXTT3=
EXTT4=
EXTT5=
EXTT6=
EXTT7=
EXTT8=
EXTT9=
EXTT10=
EXTT11=
EXTT12=
EXTT13=
EXTT14=
EXTT15=
EXTT16=
PLAYORDER=
